<svg width="1200" height="630" viewBox="0 0 1200 630" fill="none" xmlns="http://www.w3.org/2000/svg">
<rect width="1200" height="630" fill="#F8F8FB"/><rect x="64" y="64" width="1072" height="502" rx="36" fill="white" stroke="#E7E7EC"/>
<g transform="translate(120 118) scale(.12)"><path d="M0 208C0 109.948 0 60.9218 30.4609 30.4609C60.9218 0 109.948 0 208 0H392C490.052 0 539.078 0 569.539 30.4609C600 60.9218 600 109.948 600 208V392C600 490.052 600 539.078 569.539 569.539C539.078 600 490.052 600 392 600H208C109.948 600 60.9218 600 30.4609 569.539C0 539.078 0 490.052 0 392V208Z" fill="#4945FF"/><path fill-rule="evenodd" clip-rule="evenodd" d="M414 182H212V285H315V388H418V186C418 183.791 416.209 182 414 182Z" fill="white"/><path d="M212 285H311C313.209 285 315 286.791 315 289V388H216C213.791 388 212 386.209 212 384V285Z" fill="#9593FF"/><path d="M315 388H418L318.414 487.586C317.154 488.846 315 487.953 315 486.172V388Z" fill="#9593FF"/><path d="M212 285H113.828C112.046 285 111.154 282.846 112.414 281.586L212 182V285Z" fill="#9593FF"/></g>
<text x="214" y="164" fill="#202027" font-family="Arial, sans-serif" font-size="32" font-weight="700">Safe Strapi MCP</text><text x="120" y="306" fill="#202027" font-family="Arial, sans-serif" font-size="64" font-weight="700">Change content.</text><text x="120" y="385" fill="#4945FF" font-family="Arial, sans-serif" font-size="64" font-weight="700">Keep the original safe.</text><text x="120" y="466" fill="#666674" font-family="Arial, sans-serif" font-size="26">Clone-first content operations for Strapi 5.</text>
</svg>
